<?xml version="1.0" encoding="utf-8"?>
<!-- Generator: Adobe Illustrator 25.0.0, SVG Export Plug-In . SVG Version: 6.00 Build 0)  -->
<svg version="1.1" id="Layer_1" xmlns="http://www.w3.org/2000/svg" xmlns:xlink="http://www.w3.org/1999/xlink" x="0px" y="0px"
	 viewBox="0 0 512 512" style="enable-background:new 0 0 512 512;" xml:space="preserve">
<style type="text/css">
	.st0{fill:#B14B1F;}
	.st1{fill:#9F4422;}
</style>
<g>
	<g>
		<path class="st0" d="M144.6,354.8c-6.4-14.2-12.8-28.4-19.2-42.6c-20-45.1-40-90.3-60.1-135.4c-7.8-17.4-15-35-23.6-52
			c-1.7-3.4-3.7-6.8-5.9-10c-3.2-4.8-7.3-8.5-12.9-10.4c-1.5-0.5-2.5-1.1-2.1-2.9c4.8,1.3,10,1.4,14.1,5.2
			c4.9,4.7,8.2,10.3,11.1,16.2c4.6,9.4,8.8,19,13.2,28.5c1.3,2.8,3,5,6.6,3.4c0.7-0.3,1.7-0.1,2.6-0.1c7.2-0.5,14.3-1.9,21.4-2.6
			c6.5-0.7,7.8-0.6,10.2,5.3c6.3,15.3,12.6,30.6,18.9,45.9c9.4,22.6,18.9,45.2,28.3,67.9c8.1,19.5,16.1,39.1,24.1,58.7
			c1,2.4,2.5,3.6,5,3.8c2.4,0.1,3.5-1.6,4.4-3.5c1-2.1,1.9-4.3,2.8-6.5c6.8-16.2,13.5-32.4,20.3-48.6c8-18.9,16-37.8,24-56.7
			c7-16.6,14.2-33.2,21-49.9c2-5,5.5-6.6,10.3-6.4c8.1,0.4,16.2-1.2,24.3-0.8c0.9,0.1,1.9-0.4,2.9-0.7c3.8-1.4,4.4-5.2,5.8-8.3
			c5.1-11.1,9.1-22.7,15.6-33.1c5.1-8.2,11-15.8,21.7-17.2c1.2-0.1,2.3-0.9,3.4-1.4c0.5,1.5,0.4,2.6-1.3,3.3
			c-11.9,4.6-18.8,14.1-23.8,25.2c-11.3,25.3-22.5,50.6-33.6,75.9c-20.4,46.3-40.8,92.6-61.2,138.9c-0.5,1.1-1.1,2.2-1.7,3.3
			c-0.9-0.5-0.8-1.5-1.2-2.3c-0.7-1.3-1.9-1.9-2.3-0.3c-1.2,4.1-4,3.5-7.2,3.4c-10.5-0.3-20.9,1.6-31.4,2.2
			c-6.6,0.3-13.3,0.3-19.7,2.6c-1,0.3-1.2-0.6-1.6-1.1c-0.4-0.6-0.2-2.1-1.4-1.8c-1.2,0.2-1.1,1.5-1.2,2.5
			C145.2,353.2,144.9,354,144.6,354.8z"/>
		<path class="st1" d="M475.3,117.9c-4.2,12.3-5.1,25.1-5.1,38c-0.1,63.9,0,127.8-0.1,191.6c0,9.2,0.4,18.5,1.9,27.5
			c1.9,11.4,6.3,22.1,19.5,25.4c2.3,0.6,2.1,2.1,1.8,3.7c-7.8-3.3-16-4.2-24.3-4.4c-10.5-0.3-21,0.1-31.5-0.1
			c-12.1-0.2-24.1,0.6-35.9,3.8c-0.7-1.7,0.2-2.5,1.8-3c9.9-2.7,14.9-9.8,17.4-19.2c2.6-9.7,3.2-19.7,3.3-29.7
			c0.3-28.6,0.2-57.2,0.2-85.8c0-37.1,0.1-74.2-0.2-111.2c-0.1-12.4-0.8-24.8-4.9-36.7c1.9-0.6,4.3-1.6,3.1-3.9
			c-2.7-5-5.6-10-12.1-11c-2.9-0.5-5.8-1-8.6-2.2c-0.3-2.4,1.5-1.5,2.5-1.4c5.7,0.1,11.5,0.4,17.2,0.5c22.9,0.5,45.8,0.4,68.8-0.5
			c2.3-0.1,4.1-0.1,3.2,3c-7.4-1.9-18,3.5-20.5,10.6C471.9,115.3,472.3,117.2,475.3,117.9z M428.9,237.4c0,22.3,0.1,44.7-0.1,67
			c0,3.5,1.2,4.8,4.5,4.6c9.1-0.4,18.2,0.6,27.3-0.7c3.5-0.5,5.1-1.7,5-5.4c-0.1-12.7,0-25.5,0-38.2c0-31.2,0-62.4,0-93.6
			c0-4.6-1.4-6-6-6c-1.2,0-2.5,0-3.7,0c-7,0.1-13.9,0.2-20.9,0.3c-4.7,0.1-6.1,0.6-6.1,5.3C428.9,193,428.9,215.2,428.9,237.4z"/>
		<path class="st1" d="M333,100.7c-1.1,0.5-2.2,1.3-3.4,1.4c-10.7,1.3-16.6,8.9-21.7,17.2c-6.5,10.4-10.5,22-15.6,33.1
			c-1.4,3.1-2,6.9-5.8,8.3c-0.9,0.3-1.9,0.8-2.9,0.7c-8.1-0.4-16.2,1.2-24.3,0.8c-4.9-0.2-8.3,1.3-10.3,6.4
			c-6.8,16.7-14,33.3-21,49.9c-8,18.9-16,37.8-24,56.7c-6.8,16.2-13.6,32.4-20.3,48.6c-0.9,2.2-1.8,4.4-2.8,6.5
			c-0.9,1.8-2,3.6-4.4,3.5c-2.4-0.1-4-1.4-5-3.8c-7.9-19.6-16-39.2-24.1-58.7c-9.4-22.7-18.9-45.3-28.3-67.9
			c-6.3-15.3-12.6-30.6-18.9-45.9c-2.4-5.9-3.6-6-10.2-5.3c-7.2,0.7-14.2,2.1-21.4,2.6c-0.9,0.1-1.9-0.2-2.6,0.1
			c-3.7,1.6-5.4-0.7-6.6-3.4c-4.4-9.5-8.6-19.1-13.2-28.5c-2.9-5.9-6.2-11.5-11.1-16.2c-4.1-3.9-9.2-3.9-14.1-5.2
			c-0.6-2.4,0.9-2.3,2.5-2.2c8.2,0.2,16.4,0.5,24.7,0.6c18.6,0.2,37.1-0.2,55.7-0.5c1,0,3.3-1.4,3.3,1.4c-3.3,1-6.7,1.8-9.9,3
			c-2.8,1-4.9,3.1-5.6,6c-0.5,2,1.5,2.9,2.9,3.8c-2.7,10.4,1.2,19.8,4.7,29c10.1,26.6,21.5,52.6,32.3,78.9
			c14.1,34.4,28.4,68.7,42.6,103c0.6,1.3,1.2,2.7,2.1,4.6c3.8-8.9,7.3-17.2,10.9-25.5c23.5-55.6,47-111.2,70.5-166.8
			c3.4-8,5.8-16.2,4.4-25.1c0.2-0.6,0.3-1.2,0.7-1.7c2.5-3.5,2.3-4.2-1.5-6.1c-3.3-1.7-7.1-1.7-10.5-3.1c-0.1-2.6,1.9-1.4,2.9-1.4
			c7.7,0.2,15.5,0.6,23.2,0.7c17.7,0.1,35.5,0.3,53.2-0.6C331,99.3,333,98.1,333,100.7z"/>
		<path class="st1" d="M144.6,354.8c0.3-0.8,0.6-1.6,0.8-2.5c0.2-1,0-2.2,1.2-2.5c1.2-0.2,1,1.2,1.4,1.8c0.4,0.6,0.6,1.5,1.6,1.1
			c6.4-2.3,13.1-2.3,19.7-2.6c10.5-0.6,20.9-2.5,31.4-2.2c3.2,0.1,6,0.8,7.2-3.4c0.5-1.6,1.7-1,2.3,0.3c0.4,0.8,0.3,1.8,1.2,2.3
			c-4.5,10.4-8.9,20.8-13.5,31.2c-5.8,13.1-11.6,26.2-17.4,39.2c-0.6-0.1-1.5,0-1.7-0.3c-1.9-2.6-3.4-2.1-4.8,0.5
			c-0.2,0.3-0.8,0.4-1.3,0.6C163.1,397.3,153.6,376.2,144.6,354.8z"/>
		<path class="st0" d="M401.6,403.5c11.8-3.1,23.7-3.9,35.9-3.8c10.5,0.2,21-0.2,31.5,0.1c8.3,0.2,16.6,1.1,24.3,4.4
			c-0.2,1.7-1.6,0.9-2.3,0.8c-28.9-1-57.8-0.9-86.7,0C403.2,405,401.2,406.1,401.6,403.5z"/>
		<path class="st0" d="M401.6,100.7c2.7,1.2,5.7,1.7,8.6,2.2c6.5,1.1,9.4,6,12.1,11c1.3,2.4-1.1,3.3-3.1,3.9
			c-3.4-7-8.3-12.3-16.1-14.2C401.2,103.3,401.1,102.2,401.6,100.7z"/>
		<path class="st0" d="M475.3,117.9c-2.9-0.7-3.4-2.7-2.5-5.1c2.5-7.1,13.1-12.5,20.5-10.6c0.1,0.7-0.1,1.2-0.9,1.4
			C484.1,105.3,478.8,110.6,475.3,117.9z"/>
		<path class="st0" d="M94.6,113.5c-1.5-0.9-3.4-1.8-2.9-3.8c0.7-2.9,2.8-5,5.6-6c3.2-1.2,6.6-2,9.9-3c0.4,1.7,0,2.7-1.9,3.3
			C100.2,105.5,96.7,108.8,94.6,113.5z"/>
		<path class="st0" d="M250.7,100.7c3.4,1.5,7.2,1.5,10.5,3.1c3.8,1.9,4,2.7,1.5,6.1c-0.3,0.5-0.5,1.1-0.7,1.7
			c-1.7-4.3-5-6.9-9.4-7.9C250.7,103.4,250.2,102.5,250.7,100.7z"/>
		<path class="st0" d="M172.7,418.4c0.4-0.2,1.1-0.3,1.3-0.6c1.4-2.6,2.9-3.1,4.8-0.5c0.3,0.3,1.1,0.2,1.7,0.3
			C178.2,420.7,175.4,419.4,172.7,418.4z"/>
		<path class="st0" d="M428.9,237.4c0-22.2,0-44.4,0-66.7c0-4.8,1.4-5.3,6.1-5.3c7-0.1,13.9-0.2,20.9-0.3c1.2,0,2.5,0,3.7,0
			c4.6,0.1,6,1.5,6,6c0,31.2,0,62.4,0,93.6c0,12.7-0.1,25.5,0,38.2c0,3.7-1.6,4.9-5,5.4c-9.1,1.3-18.2,0.3-27.3,0.7
			c-3.3,0.1-4.6-1.2-4.5-4.6C428.9,282.1,428.9,259.8,428.9,237.4z"/>
	</g>
</g>
</svg>
