<?xml version="1.0" encoding="utf-8"?>
<!-- Generator: Adobe Illustrator 25.0.0, SVG Export Plug-In . SVG Version: 6.00 Build 0)  -->
<svg version="1.1" id="Layer_1" xmlns="http://www.w3.org/2000/svg" xmlns:xlink="http://www.w3.org/1999/xlink" x="0px" y="0px"
	 viewBox="0 0 512 512" style="enable-background:new 0 0 512 512;" xml:space="preserve">
<style type="text/css">
	.st0{fill:#EEC643;}
</style>
<g>
	<g>
		<path d="M266.5,432.6c-6.9,0-13.7,0-20.6,0c-0.4-0.7-1.2-0.4-1.7-0.4c-12.1-0.9-24.1-2.7-36-5.4c-24-5.5-47-14-68.3-26.4
			C123,390.6,108,378.8,96,363.3c-4.8-6.2-9.4-12.7-12.1-20.2c-7.1-19.6-14-39.4-20.9-59.1c-6-16.9-11.9-33.8-17.9-50.6
			c1.1-0.1,1.1,0.9,1.5,1.5c5.9,10.2,11.7,20.4,17.5,30.6c0.6,1.1,1.2,1.4,2.4,1c3.3-1,6.7-1.9,10.1-2.7c2.7-0.6,5.2-1.8,8-1.9
			c0.2,0.3,0.3,0.6,0.5,0.8c11.1,14.4,22.3,28.9,33.4,43.3c0.6,0.8,1.4,1.1,2.2,1.4c14.8,4.4,29.7,8.8,44.5,13.3
			c1.4,0.4,2.5,0.3,3.8-0.5c28.6-16.2,57.2-32.3,85.8-48.5c1.3-0.7,2.2-0.8,3.5,0c28.7,16.3,57.4,32.5,86.2,48.7
			c1,0.6,1.9,0.7,3.1,0.4c15-4.5,29.9-8.9,44.9-13.3c1-0.3,1.8-0.9,2.4-1.7c5.6-7.3,11.2-14.5,16.8-21.8c5.6-7.3,11.2-14.7,16.9-22
			c0.9-0.3,1.6,0.1,2.4,0.4c5.2,1.3,10.4,2.7,15.5,4.2c1.4,0.4,2,0.1,2.7-1.1c5.7-10.1,11.5-20.2,17.3-30.3c0.3-0.6,0.4-1.4,1.2-1.6
			c0.1,0.7-0.2,1.4-0.4,2.1c-10.6,30.1-21.2,60.2-31.8,90.3c-2.3,6.6-4.4,13.4-7.2,19.8c-3.7,8.3-9,15.6-15,22.5
			c-13.6,15.7-30.1,27.5-48.4,37c-29.1,15.1-60.1,23.9-92.8,26.9C270.2,432.1,268.3,431.9,266.5,432.6z"/>
		<path class="st0" d="M84.6,262c-2.8,0.1-5.4,1.2-8,1.9c-3.4,0.8-6.8,1.7-10.1,2.7c-1.3,0.4-1.8,0.1-2.4-1
			c-5.8-10.2-11.6-20.4-17.5-30.6c-0.3-0.6-0.4-1.6-1.5-1.5c-0.7-0.8-1-1.8-1.2-2.8c-4.6-19.4-9.2-38.7-13.8-58.1
			c-1.3-5.5-2.6-11-3.9-16.5c0.7-0.3,1,0.1,1.4,0.2c9.4,3.9,18.8,7.8,28.1,11.7c1,0.4,1.7,0.4,2.5-0.5c9.5-10.4,20.9-18.3,33.2-25
			c1.5-0.8,2.4-1.8,3.1-3.3c6.2-12.8,12.4-25.6,18.6-38.4c1-2.2,1.1-2.2,3-0.6c10.6,8.2,21.2,16.4,31.7,24.7
			c0.9,0.7,1.7,0.9,2.8,0.6c6-1.5,12.1-2.9,18.1-4.2c17.4-3.9,35-6.5,52.9-5.8c1.1,0,1.8-0.4,2.5-1.1c10.3-9.9,20.6-19.8,30.9-29.8
			c1.3-1.2,1.9-1.1,3,0c10.1,9.8,20.3,19.6,30.5,29.4c1.1,1.1,2.2,1.5,3.7,1.5c9.8-0.3,19.5,0.4,29.2,1.7c13.6,1.8,27,5,40.3,8.2
			c1.6,0.4,2.7,0.2,4-0.8c10.5-8.2,21-16.4,31.5-24.6c1.4-1.1,1.9-0.9,2.6,0.6c6.3,13.1,12.7,26.2,19,39.3c0.5,1,1,1.7,2,2.3
			c12.7,6.8,24.4,14.9,34.2,25.6c0.6,0.7,1.2,0.8,2,0.4c2-0.9,4-1.7,6.1-2.6c8-3.3,15.9-6.5,23.9-9.8c0,0.3,0,0.5,0,0.8
			c-0.6,0.7-0.6,1.6-0.8,2.3c-5.7,24-11.4,48.1-17.1,72.1c-0.2,1-0.4,2-1.5,2.5c-0.8,0.3-0.9,1.1-1.2,1.6
			c-5.8,10.1-11.6,20.1-17.3,30.3c-0.7,1.2-1.3,1.5-2.7,1.1c-5.1-1.5-10.3-2.8-15.5-4.2c-0.8-0.2-1.6-0.7-2.4-0.4
			c-4.3-12.7-11.7-23.3-21.1-32.7c-11.3-11.3-24.3-20.1-38.4-27.3c-30.4-15.6-63-23.2-97-25.2c-16.9-1-33.8-0.3-50.6,1.8
			c-18.6,2.3-36.7,6.5-54.2,13c-18.8,6.9-36.4,16-51.9,28.7C101.6,231.5,90.4,244.7,84.6,262z"/>
	</g>
</g>
</svg>
